<?xml version="1.0" standalone="no"?>
<!DOCTYPE svg PUBLIC "-//W3C//DTD SVG 20010904//EN"
 "http://www.w3.org/TR/2001/REC-SVG-20010904/DTD/svg10.dtd">
<svg version="1.0" xmlns="http://www.w3.org/2000/svg"
 width="218.000000pt" height="217.000000pt" viewBox="0 0 218.000000 217.000000"
 preserveAspectRatio="xMidYMid meet">
<metadata>
Created by potrace 1.10, written by Peter Selinger 2001-2011
</metadata>
<g transform="translate(0.000000,217.000000) scale(0.100000,-0.100000)"
fill="#ffffff" stroke="none">
<path d="M962 2163 c-13 -5 -58 -43 -108 -90 -13 -13 -28 -23 -34 -23 -5 0
-10 -4 -10 -10 0 -5 -13 -10 -29 -10 -17 0 -33 5 -36 10 -3 6 1 10 9 10 9 0
16 4 16 9 0 5 12 13 28 19 15 5 41 21 57 36 17 14 33 26 38 26 4 0 7 4 7 9 0
11 -118 12 -126 0 -3 -5 -14 -9 -25 -9 -10 0 -27 -4 -37 -9 -9 -5 -43 -21 -74
-37 -32 -16 -58 -32 -58 -36 0 -4 -9 -8 -20 -8 -11 0 -20 -4 -20 -10 0 -5 -6
-10 -12 -10 -17 0 -67 -40 -145 -116 -35 -33 -65 -58 -68 -56 -3 3 -5 -2 -5
-11 0 -9 -4 -17 -10 -17 -5 0 -10 -6 -10 -13 0 -7 -9 -19 -20 -27 -11 -8 -20
-18 -20 -22 0 -4 -15 -31 -34 -60 -18 -29 -39 -70 -47 -90 -7 -21 -17 -38 -21
-38 -4 0 -8 -11 -8 -25 0 -14 -4 -25 -10 -25 -5 0 -10 -16 -10 -35 0 -19 -4
-35 -10 -35 -5 0 -10 -23 -10 -51 0 -31 -4 -48 -10 -44 -7 4 -10 -50 -10 -154
0 -101 4 -161 10 -161 6 0 10 -22 10 -49 0 -28 5 -53 10 -56 6 -3 10 -19 10
-36 0 -16 5 -29 10 -29 6 0 10 -8 10 -17 0 -10 16 -51 37 -90 l37 -73 856 0
c652 0 859 3 868 12 7 7 12 20 12 30 0 10 5 18 10 18 6 0 10 9 10 20 0 11 5
20 10 20 6 0 10 12 10 26 0 14 4 23 10 19 6 -4 10 7 10 24 0 17 4 31 9 31 5 0
11 15 14 33 4 17 11 57 17 87 18 95 23 229 11 304 -20 123 -35 186 -43 186 -4
0 -8 14 -8 31 0 17 -4 28 -10 24 -6 -4 -10 5 -10 19 0 14 -4 26 -10 26 -5 0
-10 9 -10 20 0 11 -4 20 -8 20 -5 0 -14 16 -22 35 -8 19 -17 35 -22 35 -4 0
-8 5 -8 11 0 33 -209 259 -240 259 -6 0 -10 4 -10 9 0 4 -20 19 -45 32 -25 13
-45 27 -45 31 0 5 -9 8 -19 8 -11 0 -21 4 -23 8 -5 14 -110 62 -134 62 -13 0
-26 5 -30 11 -4 7 -24 9 -52 6 -24 -3 -59 -1 -76 4 l-31 9 27 -25 c15 -14 31
-25 37 -25 5 0 11 -4 13 -8 2 -4 29 -21 61 -37 62 -31 61 -47 -2 -43 -28 2
-47 15 -98 66 -39 39 -70 62 -80 60 -14 -2 -4 -17 41 -61 32 -31 57 -58 55
-58 -35 -10 -62 -6 -66 12 -3 10 -9 19 -14 19 -5 0 -9 7 -9 15 0 8 -4 15 -9
15 -5 0 -14 14 -21 30 -15 36 -30 39 -30 5 0 -14 5 -25 10 -25 6 0 10 -7 10
-15 0 -8 4 -15 9 -15 5 0 11 -9 14 -20 5 -18 1 -20 -31 -17 -33 2 -37 5 -38
32 -1 56 -4 65 -19 65 -11 0 -15 -12 -15 -49 0 -47 -1 -49 -31 -53 -36 -6 -49
13 -25 37 19 20 30 59 22 80 -5 15 -29 18 -54 8z m38 -15 c0 -7 -9 -24 -20
-38 -11 -14 -20 -31 -20 -38 0 -22 -23 -37 -57 -39 -40 -3 -42 10 -6 40 14 12
40 36 57 54 34 34 46 40 46 21z m-170 -18 c0 -5 -7 -10 -15 -10 -8 0 -15 -4
-15 -9 0 -5 -8 -11 -17 -15 -17 -5 -29 -12 -85 -48 -28 -20 -83 -24 -93 -8 -3
6 1 10 9 10 9 0 16 5 16 10 0 6 8 10 18 11 9 0 46 15 82 33 67 35 100 43 100
26z m542 -8 c18 -10 56 -27 83 -37 82 -31 99 -41 80 -49 -35 -13 -93 -1 -115
25 -3 3 -29 18 -57 34 -29 15 -53 32 -53 37 0 13 27 9 62 -10z m-732 -112 c13
-8 11 -11 -7 -16 -13 -4 -23 -10 -23 -15 0 -5 -5 -9 -11 -9 -6 0 -31 -21 -55
-46 -42 -45 -46 -47 -106 -50 l-63 -3 30 25 c17 14 41 35 55 47 64 56 84 66
155 75 6 1 17 -3 25 -8z m124 -30 c-14 -16 -37 -40 -50 -54 -13 -14 -24 -30
-24 -36 0 -5 -6 -10 -12 -10 -7 0 -41 -3 -75 -5 -60 -4 -62 -3 -50 15 6 11 14
20 18 20 3 0 14 8 25 18 10 10 35 28 54 42 19 13 37 27 40 31 6 9 69 16 88 10
9 -2 5 -12 -14 -31z m166 20 c0 -5 -7 -15 -15 -24 -8 -8 -15 -21 -15 -30 0 -8
-4 -18 -10 -21 -5 -3 -10 -15 -10 -26 0 -17 -7 -19 -57 -19 -32 0 -68 -3 -81
-6 -19 -5 -21 -3 -15 12 4 10 21 33 37 50 17 17 40 42 51 55 18 21 28 24 68
21 26 -2 47 -8 47 -12z m91 10 l30 0 -3 -66 -3 -66 -71 -1 -70 -2 10 28 c6 15
14 27 18 27 4 0 8 9 8 19 0 11 5 23 10 26 6 3 10 15 10 27 0 14 5 18 16 14 9
-3 29 -6 45 -6z m282 -12 c8 -13 33 -43 56 -68 22 -25 41 -48 41 -51 0 -4 -28
-5 -62 -3 -35 2 -66 4 -70 4 -5 0 -8 6 -8 13 0 8 -11 36 -25 63 -14 27 -25 50
-25 51 0 1 15 4 33 6 17 2 35 5 38 5 4 1 14 -8 22 -20z m306 5 c3 -5 22 -20
41 -33 36 -25 53 -38 99 -77 l26 -22 -68 3 c-57 3 -73 7 -91 27 -42 44 -95 89
-106 89 -11 0 -14 13 -4 22 8 9 96 1 103 -9z m-418 -28 c10 -16 18 -38 18 -47
1 -10 6 -18 11 -18 6 0 10 -8 10 -17 0 -16 -9 -18 -72 -16 l-71 2 -1 66 -1 66
44 -3 c37 -3 47 -8 62 -33z m289 8 c17 -16 45 -40 62 -55 16 -16 34 -28 38
-28 4 0 10 -6 13 -14 5 -12 -6 -14 -64 -9 -51 4 -69 3 -69 -6 0 -16 -14 -1
-55 54 -16 22 -41 50 -55 62 l-25 23 62 0 c54 0 67 -4 93 -27z m-1011 -142 c2
-1 -11 -15 -28 -33 -17 -17 -37 -44 -43 -60 -7 -15 -16 -28 -20 -29 -41 -3
-110 0 -116 5 -4 4 1 12 11 17 9 6 17 14 17 20 0 5 14 23 30 41 17 17 30 35
30 39 0 6 98 6 119 0z m181 -8 c0 -7 -4 -13 -8 -13 -4 0 -20 -24 -35 -52 l-28
-53 -79 0 c-57 0 -80 4 -80 13 0 6 3 12 8 12 4 0 24 24 45 54 l39 53 69 -1
c48 -1 69 -5 69 -13z m210 7 c0 -4 -4 -10 -9 -15 -4 -6 -16 -32 -26 -60 l-17
-50 -90 2 c-49 1 -92 4 -95 7 -3 2 7 20 21 39 14 19 26 39 26 45 0 7 5 12 10
12 6 0 10 6 10 13 0 9 23 12 85 12 47 0 85 -2 85 -5z m190 -57 l0 -63 -107 0
c-83 0 -104 3 -95 12 7 7 12 20 12 30 0 10 5 18 10 18 6 0 10 13 10 28 0 16 2
31 4 33 2 2 41 4 85 4 l81 0 0 -62z m210 12 c7 -27 15 -56 17 -62 4 -10 -19
-13 -93 -13 l-99 0 2 62 c1 35 2 63 3 63 0 0 35 0 79 0 l78 1 13 -51z m192 4
c15 -24 32 -49 38 -56 5 -7 10 -14 10 -17 0 -3 -39 -7 -87 -8 -84 -3 -89 -2
-100 21 -7 13 -13 34 -13 47 0 12 -4 26 -10 29 -5 3 -10 12 -10 18 0 8 23 12
72 11 l72 0 28 -45z m214 -6 c21 -29 42 -52 47 -53 4 0 7 -6 7 -12 0 -10 -26
-13 -95 -13 -78 0 -95 3 -95 15 0 8 -9 26 -20 40 -11 14 -20 30 -20 36 0 7 -7
15 -16 18 -32 12 -3 21 73 21 l80 1 39 -53z m134 42 c0 -6 9 -17 20 -25 11 -8
20 -19 20 -24 0 -5 12 -20 26 -33 14 -13 24 -26 21 -29 -3 -3 -33 -6 -66 -7
-43 -2 -61 2 -61 11 0 6 -3 12 -8 12 -4 0 -18 18 -32 40 -13 22 -30 42 -37 44
-32 13 -8 22 52 22 37 -1 65 -5 65 -11z m118 -175 c12 -9 32 -49 32 -65 0 -9
5 -13 10 -10 6 3 10 -3 10 -14 0 -19 -6 -21 -65 -21 -51 0 -65 3 -65 15 0 18
-38 87 -53 97 -21 13 3 22 53 19 43 -2 50 0 51 16 0 14 3 12 10 -7 6 -13 13
-27 17 -30z m-1577 -8 c-6 -2 -11 -12 -11 -23 0 -10 -4 -19 -10 -19 -5 0 -10
-13 -10 -30 l0 -30 -71 0 c-39 0 -69 3 -67 8 2 4 17 33 33 64 l29 57 55 3 c43
2 57 -1 60 -12 2 -8 -2 -16 -8 -18z m219 8 c0 -11 -4 -20 -10 -20 -5 0 -10 -8
-10 -18 0 -10 -6 -30 -12 -45 -13 -26 -15 -27 -105 -27 -74 0 -93 3 -93 14 0
8 3 16 8 18 4 2 18 24 31 51 l24 47 84 0 c76 0 83 -2 83 -20z m234 -7 c-4 -16
-11 -32 -15 -37 -5 -6 -9 -23 -9 -38 l0 -28 -105 0 c-111 0 -119 4 -96 48 5 9
15 32 21 50 l12 32 99 0 99 0 -6 -27z m256 -38 l0 -65 -124 0 c-73 0 -127 4
-131 10 -3 6 -2 10 3 10 5 0 14 25 21 55 l12 55 110 0 109 0 0 -65z m250 26
c0 -22 5 -43 10 -46 6 -3 10 -15 10 -26 0 -18 -8 -19 -117 -19 l-118 0 2 62
c1 35 2 64 3 66 0 1 47 2 105 2 l105 0 0 -39z m230 15 c0 -14 5 -28 10 -31 6
-3 10 -15 10 -26 0 -10 5 -19 10 -19 6 0 10 -7 10 -15 0 -12 -19 -15 -115 -15
l-115 0 0 55 c0 30 -4 55 -10 55 -5 0 -10 5 -10 10 0 6 42 10 105 10 105 0
105 0 105 -24z m230 4 c0 -11 5 -20 10 -20 6 0 10 -9 10 -19 0 -11 4 -21 9
-23 4 -1 12 -13 15 -25 7 -23 7 -23 -103 -23 l-111 0 0 35 c0 19 -4 35 -10 35
-5 0 -10 9 -10 20 0 11 -4 20 -10 20 -5 0 -10 5 -10 10 0 6 42 10 105 10 98 0
105 -1 105 -20z m228 -152 c2 -17 6 -36 11 -42 10 -13 20 -76 12 -76 -3 -1
-32 -2 -63 -3 l-58 -2 0 30 c0 16 -7 43 -15 59 -24 45 -20 59 13 51 15 -4 32
-7 37 -7 21 2 45 8 51 15 10 10 9 11 12 -25z m-1798 14 c0 -9 47 -8 57 1 15
15 43 7 43 -13 0 -11 -4 -20 -10 -20 -5 0 -10 -11 -10 -24 0 -13 -6 -37 -13
-52 -11 -28 -15 -29 -72 -28 -47 1 -61 5 -63 18 -2 9 1 16 7 16 6 0 11 11 11
23 0 28 28 87 41 87 5 0 9 -4 9 -8z m164 0 c6 -10 107 -9 124 2 7 4 19 2 28
-5 9 -8 11 -15 5 -19 -6 -3 -11 -29 -12 -58 l-2 -52 -104 0 -103 0 0 30 c0 17
5 30 10 30 6 0 10 15 10 34 0 30 9 43 32 45 4 1 9 -2 12 -7z m298 -4 c43 1 83
4 87 7 5 2 14 -2 20 -9 8 -10 9 -16 1 -21 -5 -3 -10 -30 -10 -58 l0 -52 -115
3 c-114 3 -115 4 -115 27 0 13 5 27 10 30 6 3 10 21 10 39 0 36 7 49 23 39 5
-3 45 -5 89 -5z m163 2 c6 -10 201 -8 211 3 16 15 24 -9 24 -69 l0 -64 -34 0
c-26 0 -41 7 -59 30 -14 17 -31 30 -36 30 -6 0 -25 -13 -43 -30 -24 -23 -40
-30 -71 -30 -36 0 -39 2 -32 23 4 12 10 43 12 70 5 45 15 58 28 37z m398 -5
c43 1 81 5 84 9 14 13 21 4 26 -36 4 -24 9 -55 13 -70 l6 -28 -128 0 -129 0 3
69 c3 67 4 70 25 62 13 -5 57 -8 100 -6z m172 4 c7 -10 148 -4 167 7 17 11 38
-25 38 -65 0 -23 5 -41 10 -41 6 0 10 -7 10 -15 0 -12 -19 -15 -115 -15 -63 0
-118 -1 -122 -2 -5 -2 -9 30 -11 70 -3 67 6 90 23 61z m335 -4 c37 -2 70 1 78
7 17 14 41 -17 42 -52 0 -15 4 -30 9 -35 5 -6 11 -18 13 -28 3 -17 -7 -18
-112 -18 l-115 -1 -3 44 c-2 24 -7 47 -13 53 -5 5 -9 18 -9 28 0 15 5 18 23
13 12 -4 51 -9 87 -11z m-748 -149 c40 -43 63 -52 51 -21 -3 9 1 15 11 15 9 0
16 -2 16 -4 0 -2 3 -11 6 -20 3 -9 2 -16 -4 -16 -5 0 -33 -22 -63 -50 -30 -27
-57 -50 -61 -50 -5 0 -8 -110 -8 -245 l0 -245 -52 4 c-29 2 -82 4 -118 5 l-65
1 0 59 0 59 40 5 c22 2 41 3 43 1 2 -1 6 -27 9 -57 4 -43 9 -54 20 -50 11 5
13 18 9 57 -3 28 -7 96 -9 151 -2 55 -9 113 -15 128 -16 38 -15 97 1 97 8 0
11 -16 10 -55 -1 -30 3 -57 8 -61 7 -4 10 18 9 67 -5 171 -5 171 47 222 26 26
53 47 60 47 7 0 31 -20 55 -44z m-726 -76 l-1 -70 -72 0 c-71 0 -73 1 -73 25
0 14 5 25 10 25 6 0 10 20 10 45 l0 45 63 0 64 0 -1 -70z m234 0 l0 -70 -105
0 -105 0 0 63 c0 35 3 67 7 70 3 4 51 7 105 7 l98 0 0 -70z m270 50 c0 -11 -5
-20 -11 -20 -7 0 -10 -18 -7 -50 l3 -50 -114 0 c-99 0 -112 2 -107 16 3 9 6
40 6 70 l0 54 115 0 c108 0 115 -1 115 -20z m60 10 c0 -5 -5 -10 -11 -10 -7 0
-9 -20 -6 -60 3 -46 1 -60 -9 -60 -11 0 -14 18 -14 70 0 63 2 70 20 70 11 0
20 -4 20 -10z m530 -14 c0 -14 -10 -33 -23 -43 -13 -10 -31 -30 -41 -45 -18
-27 -21 -28 -106 -28 l-87 0 1 70 1 70 128 0 127 0 0 -24z m272 -46 l3 -70
-82 0 c-47 0 -83 4 -83 10 0 5 -16 25 -35 44 -19 20 -35 41 -35 49 0 7 -5 18
-12 25 -9 9 16 12 114 12 l126 0 4 -70z m262 54 c3 -9 6 -38 6 -64 0 -27 5
-52 10 -55 6 -3 10 -12 9 -18 0 -9 -2 -9 -6 1 -3 9 -38 12 -124 12 l-119 0 0
48 c0 26 -3 57 -6 70 -6 22 -6 22 109 22 95 0 116 -3 121 -16z m156 -54 l0
-70 -59 0 -59 0 -4 70 -3 70 63 0 62 0 0 -70z m-635 -17 c32 -36 31 -46 -5
-74 l-30 -24 0 -227 0 -228 -41 0 c-24 0 -38 4 -34 10 4 6 -7 10 -24 10 -17 0
-31 5 -31 10 0 6 5 10 10 10 6 0 10 20 10 44 0 45 -24 71 -42 44 -4 -8 -8 10
-9 42 0 30 -2 62 -3 70 -2 8 1 26 5 40 5 18 7 7 8 -36 1 -68 8 -82 27 -56 15
19 19 116 5 107 -15 -8 -25 15 -12 28 8 8 11 8 11 -1 0 -7 9 -12 20 -12 13 0
20 7 20 20 0 11 -7 20 -16 20 -10 0 -13 6 -9 19 4 13 -7 29 -41 60 -48 43 -47
45 24 41 38 -2 43 1 40 16 -3 20 59 92 80 93 7 1 24 -11 37 -26z m-350 -23 c3
-13 9 -28 14 -33 5 -5 4 -19 -4 -34 -9 -18 -11 -33 -4 -50 5 -13 9 -107 9
-209 l0 -184 -58 0 -58 0 0 34 c0 19 2 33 5 31 4 -2 4 36 2 83 -2 48 -5 133
-5 188 l-1 102 45 49 c25 27 46 48 48 47 1 -1 5 -12 7 -24z m-802 -126 c1 -56
-2 -68 -13 -65 -27 6 -65 5 -87 -2 -22 -8 -23 -6 -23 37 0 25 -4 48 -10 51 -5
3 -10 16 -10 29 0 21 3 22 71 21 l71 -1 1 -70z m237 25 c0 -25 5 -50 11 -56
23 -23 -2 -31 -80 -27 -43 2 -92 -1 -110 -6 l-31 -9 0 72 0 72 105 0 105 0 0
-46z m107 42 c1 -1 -11 -15 -28 -32 -17 -17 -32 -29 -33 -28 -2 2 -6 18 -9 35
-6 30 -5 31 31 28 20 -1 38 -2 39 -3z m150 -27 c1 -16 5 -47 8 -69 6 -41 6
-41 -27 -41 -31 0 -34 2 -30 26 3 20 -6 35 -41 67 -25 23 -41 43 -36 45 5 2
35 3 66 2 56 -1 58 -1 60 -30z m419 27 c14 -2 -54 -59 -77 -65 -13 -3 -18 -3
-11 0 6 3 12 18 12 33 0 15 2 30 4 32 4 3 54 4 72 0z m376 -15 c5 -9 13 -16
19 -16 12 0 58 -51 59 -65 0 -5 -14 -19 -30 -30 l-30 -20 0 -162 0 -163 -40 0
c-22 0 -40 5 -40 10 0 6 -9 10 -19 10 -17 0 -18 4 -12 28 5 15 6 42 3 60 -3
25 -1 32 12 32 9 0 16 8 16 20 0 11 -7 20 -15 20 -12 0 -15 14 -15 65 0 51 3
65 15 65 8 0 15 9 15 20 0 11 -7 20 -15 20 -12 0 -15 14 -15 63 l0 63 41 -2
c27 -1 45 -8 51 -18z m78 -15 l0 -34 -28 29 c-33 33 -32 45 3 42 21 -2 25 -7
25 -37z m271 -33 c-3 -71 -10 -84 -39 -69 -12 7 -59 9 -116 7 -76 -2 -96 0
-96 10 0 8 5 14 10 14 6 0 10 24 10 53 l0 52 117 -2 117 -2 -3 -63z m149 1 c0
-36 -3 -68 -6 -71 -3 -4 -19 -2 -35 2 -18 5 -41 5 -55 0 l-24 -10 0 73 0 73
60 -1 60 0 0 -66z m-1395 6 l37 -36 -36 -32 -36 -33 0 -157 0 -157 -41 0 c-24
0 -38 4 -34 10 4 6 -26 10 -82 10 -86 0 -88 1 -100 27 -7 15 -13 37 -13 49 0
12 -5 24 -12 26 -6 2 -9 8 -6 14 3 5 49 8 101 6 l95 -3 -5 -39 c-3 -22 -2 -47
2 -57 7 -16 8 -16 14 5 3 12 5 48 3 80 l-4 57 -104 -3 c-90 -3 -104 -2 -104
12 0 9 -4 16 -9 16 -5 0 -11 23 -13 50 l-3 50 108 0 107 0 0 -49 c0 -28 5 -53
10 -56 11 -7 12 1 10 102 -1 71 -1 72 37 107 21 20 38 36 39 36 1 0 18 -16 39
-35z m569 -1 l37 -36 -36 -32 -35 -32 0 -157 0 -157 -40 0 -40 0 0 193 0 192
30 20 c16 11 30 26 30 33 0 20 15 14 54 -24z m207 -7 c-13 -13 -15 -61 -2 -52
16 9 23 -13 16 -47 -5 -22 -9 -27 -16 -17 -5 9 -9 -9 -9 -48 0 -50 3 -61 14
-57 12 4 14 -2 11 -28 -3 -18 -9 -34 -15 -36 -5 -2 -10 -10 -10 -18 0 -9 4
-13 8 -10 5 3 9 -1 9 -9 0 -8 -4 -12 -9 -9 -4 3 -8 -6 -8 -20 0 -13 6 -27 13
-29 6 -3 3 -6 -8 -6 -16 -1 -20 5 -20 24 1 14 4 28 8 31 3 3 3 12 0 20 -2 7
-6 85 -6 174 -2 122 1 160 11 160 6 0 13 6 13 13 1 6 3 4 6 -7 3 -10 0 -23 -6
-29z m-741 -83 c0 -3 -6 -11 -13 -18 -16 -16 -14 -119 2 -124 15 -5 14 -21 -3
-37 -9 -9 -12 -31 -9 -69 3 -35 0 -56 -6 -56 -16 0 -15 277 2 295 12 15 27 20
27 9z m89 -23 c-11 -16 -11 -27 -1 -54 21 -58 17 -67 -31 -67 l-42 0 0 65 0
65 38 0 c21 0 37 5 37 12 0 6 3 9 6 6 3 -3 0 -15 -7 -27z m861 22 c0 -5 -7
-17 -15 -27 -17 -22 -20 -102 -5 -111 13 -8 13 -45 -1 -45 -7 0 -10 -21 -7
-60 2 -42 -1 -60 -9 -60 -19 0 -12 271 7 293 16 17 30 22 30 10z m-1367 -45
c3 -18 9 -48 13 -65 l7 -33 -55 0 c-49 0 -56 3 -66 25 -7 14 -12 37 -12 50 0
14 -4 25 -10 25 -5 0 -10 7 -10 15 0 12 14 15 64 15 l63 0 6 -32z m1612 5 c-3
-16 -11 -45 -17 -65 l-11 -38 -104 0 -103 0 0 65 0 65 120 0 120 0 -5 -27z
m148 -10 c-3 -21 -10 -39 -15 -41 -4 -2 -8 -15 -8 -28 0 -23 -3 -24 -56 -24
-55 0 -56 0 -50 28 3 15 8 44 12 65 l6 37 58 0 59 0 -6 -37z m-1723 -160 c0
-17 4 -34 9 -37 5 -3 11 -17 13 -31 5 -24 3 -25 -37 -25 -41 0 -43 1 -73 59
-18 32 -30 60 -28 62 3 2 29 4 60 4 l56 0 0 -32z m1532 5 c-1 -13 -7 -24 -12
-26 -6 -2 -10 -13 -10 -24 0 -36 -24 -48 -99 -48 l-71 0 0 63 0 62 97 -2 c96
-2 98 -2 95 -25z m148 10 c0 -10 -4 -18 -10 -18 -5 0 -10 -9 -10 -20 0 -11 -4
-20 -9 -20 -5 0 -11 -10 -13 -22 -3 -20 -11 -24 -55 -28 -38 -4 -53 -2 -53 7
0 6 4 14 9 17 5 3 12 17 15 30 17 67 21 71 75 71 42 0 51 -3 51 -17z m-758
-70 c2 -21 0 -38 -4 -38 -4 0 -8 21 -7 48 1 52 6 48 11 -10z"/>
<path d="M1276 1163 c-3 -10 -1 -34 3 -53 9 -34 9 -33 10 18 1 53 -4 66 -13
35z"/>
<path d="M1283 960 c0 -25 2 -35 4 -22 2 12 2 32 0 45 -2 12 -4 2 -4 -23z"/>
<path d="M1240 884 c0 -17 6 -24 20 -24 13 0 20 7 20 19 0 10 -9 21 -20 24
-16 4 -20 0 -20 -19z"/>
<path d="M1282 820 c0 -14 2 -19 5 -12 2 6 2 18 0 25 -3 6 -5 1 -5 -13z"/>
<path d="M1281 774 c0 -11 3 -14 6 -6 3 7 2 16 -1 19 -3 4 -6 -2 -5 -13z"/>
<path d="M1492 1147 c-12 -13 -22 -34 -21 -48 0 -22 1 -22 8 -4 5 11 18 29 30
39 22 20 27 36 13 36 -5 0 -18 -10 -30 -23z"/>
<path d="M1472 990 c0 -19 2 -27 5 -17 2 9 2 25 0 35 -3 9 -5 1 -5 -18z"/>
<path d="M1068 2163 c6 -2 18 -2 25 0 6 3 1 5 -13 5 -14 0 -19 -2 -12 -5z"/>
<path d="M194 632 l-72 -3 -6 -37 c-3 -20 -8 -56 -12 -79 -3 -24 -10 -43 -15
-43 -5 0 -9 -6 -9 -13 0 -17 131 -281 142 -285 4 -2 8 -12 8 -23 0 -10 5 -19
10 -19 6 0 10 4 10 8 0 15 -31 72 -39 72 -5 0 -7 11 -6 24 2 14 -3 27 -11 30
-8 3 -14 11 -14 19 0 7 -9 30 -20 52 -11 22 -20 45 -20 53 0 7 -4 10 -10 7
-17 -10 -16 121 1 150 4 6 9 22 13 38 6 25 10 27 57 27 l51 0 -3 -32 c-2 -18
-7 -39 -12 -46 -17 -22 -11 -111 11 -155 11 -23 26 -57 34 -75 7 -17 16 -32
20 -32 5 0 8 -12 8 -26 0 -14 4 -23 10 -19 6 3 10 -1 10 -11 0 -9 8 -23 18
-30 21 -16 32 -17 32 -4 0 6 -7 10 -15 10 -8 0 -15 9 -15 19 0 11 -4 23 -10
26 -5 3 -10 15 -10 26 0 10 -4 19 -10 19 -5 0 -10 6 -10 14 0 8 -10 34 -21 58
-46 92 -45 80 -19 203 19 90 27 82 -76 77z m-87 -194 c-3 -8 -6 -5 -6 6 -1 11
2 17 5 13 3 -3 4 -12 1 -19z"/>
<path d="M369 629 c-8 -4 -18 -42 -36 -132 -3 -16 -1 -38 5 -50 6 -12 36 -75
67 -140 52 -110 75 -141 75 -99 0 9 -9 28 -20 42 -11 14 -20 35 -20 48 0 12
-4 22 -9 22 -5 0 -15 17 -21 38 -7 20 -20 51 -29 67 -23 40 -34 85 -21 85 5 0
10 12 10 28 0 15 7 38 16 50 15 22 18 22 270 22 l255 0 44 -45 c33 -33 45 -52
45 -74 0 -16 5 -33 10 -36 6 -4 7 -11 4 -17 -7 -11 -10 -33 -13 -79 -1 -16
-20 -46 -51 -80 -54 -58 -65 -97 -30 -106 11 -3 20 -9 20 -14 0 -5 110 -8 245
-7 135 0 245 5 245 9 0 5 6 9 13 9 7 0 18 9 25 21 11 17 11 20 0 13 -10 -6
-11 -5 -1 7 13 16 -1 42 -27 47 -8 2 -17 7 -20 12 -3 5 -61 9 -130 9 -201 0
-190 -1 -184 19 4 9 13 32 21 50 l14 32 104 0 c93 0 108 2 130 22 33 29 32 45
-7 80 -31 28 -35 28 -133 26 -90 -1 -100 0 -104 17 -1 10 -12 33 -22 52 l-19
33 174 0 c199 0 238 -9 260 -62 11 -26 11 -37 -1 -66 -8 -18 -9 -31 -4 -27 7
3 11 -3 11 -16 0 -13 15 -37 33 -54 45 -43 67 -73 67 -90 0 -7 5 -17 10 -20 6
-3 10 -26 10 -51 0 -24 -4 -44 -10 -44 -5 0 -10 -8 -10 -18 0 -10 -3 -22 -7
-26 -5 -4 -8 -11 -8 -14 0 -4 -16 -22 -34 -41 l-34 -35 -350 1 c-239 1 -353 5
-360 12 -6 6 -8 11 -3 11 4 0 0 10 -8 22 -9 12 -16 28 -16 36 0 7 -7 29 -17
50 -9 20 -17 39 -17 42 -6 20 -32 47 -43 43 -7 -3 -13 -1 -13 5 0 5 -11 13
-25 16 -21 5 -25 12 -25 42 0 21 -4 33 -10 29 -5 -3 -10 1 -10 9 0 14 17 16
105 16 92 0 108 3 125 20 29 29 26 66 -7 87 -23 15 -52 18 -185 19 -131 1
-158 -1 -158 -13 0 -8 -5 -11 -10 -8 -6 3 -14 -4 -19 -17 -8 -20 -10 -20 -10
-4 -1 11 -4 17 -7 13 -8 -7 18 -77 28 -77 4 0 8 -8 8 -18 0 -10 9 -37 20 -60
11 -22 20 -48 20 -57 0 -9 5 -13 10 -10 6 3 10 -1 10 -10 0 -8 4 -23 9 -33 24
-48 55 -119 57 -131 2 -8 9 -18 16 -22 15 -10 18 -10 -192 -14 -137 -2 -203 5
-186 22 3 3 -2 12 -10 20 -8 8 -12 19 -9 24 4 5 1 9 -4 9 -6 0 -11 -9 -11 -20
0 -11 5 -20 10 -20 6 0 10 -9 10 -21 0 -11 4 -17 10 -14 5 3 10 0 10 -7 0 -10
43 -13 200 -15 166 -1 200 1 200 13 0 8 -16 48 -35 90 -19 41 -35 77 -35 80 0
2 -9 26 -21 52 -22 49 -35 80 -52 122 -5 14 -16 37 -24 53 -12 22 -12 28 -1
32 8 3 90 4 183 3 158 -3 170 -4 173 -22 6 -31 -24 -38 -149 -37 -94 2 -119
-1 -119 -11 0 -8 4 -18 8 -23 5 -6 15 -26 22 -45 30 -82 35 -90 57 -90 32 0
53 -10 53 -26 0 -8 10 -36 21 -62 12 -26 30 -66 40 -89 l19 -43 363 3 363 3
33 30 c18 16 44 47 57 70 48 81 23 197 -58 273 -37 35 -49 73 -28 86 14 9 13
51 -2 77 -36 63 -54 67 -306 70 -122 2 -222 0 -222 -3 0 -3 9 -14 19 -23 11
-10 28 -34 37 -54 19 -39 21 -44 23 -67 1 -12 22 -15 126 -15 112 0 125 -2
134 -19 19 -35 -10 -44 -140 -43 l-119 1 0 -24 c0 -13 -5 -27 -10 -30 -5 -3
-10 -17 -10 -31 0 -13 -4 -24 -8 -24 -8 0 -32 -43 -32 -55 0 -3 89 -6 198 -7
195 -3 197 -3 200 -25 l3 -22 -249 -3 c-137 -2 -256 -2 -265 0 -27 5 -20 22
22 58 105 91 108 259 6 353 l-34 30 -276 3 c-152 2 -281 1 -286 -3z"/>
<path d="M1697 622 c-37 -23 -67 -78 -67 -122 0 -30 10 -56 37 -98 56 -89 73
-121 73 -142 0 -19 8 -20 165 -20 l165 0 0 83 0 82 -144 -1 c-153 -1 -159 0
-148 49 3 15 18 17 148 17 l144 0 0 83 0 82 -176 0 c-129 0 -181 -4 -197 -13z
m355 -53 c4 -41 -13 -75 -32 -64 -5 3 -11 1 -14 -3 -5 -9 -108 -6 -133 3 -7 2
-15 0 -18 -5 -4 -7 -13 -6 -25 0 -24 13 -40 13 -20 0 12 -8 9 -10 -12 -10 -32
0 -43 -15 -39 -54 5 -51 20 -57 133 -56 180 3 163 8 162 -53 0 -34 -4 -51 -12
-50 -6 2 -9 -4 -6 -12 5 -12 -3 -15 -40 -15 -27 0 -46 5 -46 11 0 8 -6 7 -17
-2 -11 -10 -14 -10 -9 -1 8 13 5 13 -95 16 -62 1 -89 17 -89 51 0 13 -4 25 -8
27 -5 2 -23 28 -40 59 -42 74 -42 117 -1 164 l31 35 163 0 163 0 4 -41z"/>
<path d="M387 170 c-4 -16 -1 -19 16 -16 12 3 28 5 36 5 11 1 10 5 -5 16 -26
20 -41 19 -47 -5z"/>
<path d="M1740 160 c0 -16 -4 -30 -10 -30 -5 0 -10 -8 -10 -18 0 -9 -16 -31
-35 -47 -19 -17 -35 -35 -35 -42 0 -12 6 -11 48 3 9 3 55 5 102 4 47 -1 82 2
78 5 -4 4 -39 7 -78 6 -40 0 -76 2 -81 5 -9 5 19 66 34 72 4 2 7 10 7 18 0 16
-2 16 75 19 53 2 115 17 115 29 0 2 -47 4 -105 5 l-105 2 0 -31z"/>
<path d="M1965 180 c4 -6 14 -9 23 -8 29 5 24 -35 -8 -69 -16 -18 -30 -36 -30
-42 0 -5 -12 -14 -27 -19 -24 -9 -25 -11 -7 -11 14 -1 32 13 49 35 16 21 40
49 54 63 60 59 59 61 -3 61 -37 0 -55 -4 -51 -10z"/>
</g>
</svg>
