<?xml version="1.0" standalone="no"?>
<!DOCTYPE svg PUBLIC "-//W3C//DTD SVG 20010904//EN"
 "http://www.w3.org/TR/2001/REC-SVG-20010904/DTD/svg10.dtd">
<svg version="1.0" xmlns="http://www.w3.org/2000/svg"
 width="300.000000pt" height="105.000000pt" viewBox="0 0 300.000000 105.000000"
 preserveAspectRatio="xMidYMid meet">
<metadata>
Created by potrace 1.10, written by Peter Selinger 2001-2011
</metadata>
<g transform="translate(0.000000,105.000000) scale(0.100000,-0.100000)"
fill="#f00505" stroke="none">
<path d="M871 1029 c-16 -17 -18 -26 -9 -45 14 -30 31 -36 57 -18 24 17 26 41
7 67 -17 22 -31 22 -55 -4z m49 -29 c0 -13 -7 -20 -20 -20 -13 0 -20 7 -20 20
0 13 7 20 20 20 13 0 20 -7 20 -20z"/>
<path d="M981 949 c-23 -25 -15 -58 17 -70 17 -7 25 -3 38 16 19 29 14 49 -15
64 -16 9 -24 7 -40 -10z m42 -35 c-3 -8 -11 -14 -18 -14 -17 0 -27 28 -12 33
20 7 36 -4 30 -19z"/>
<path d="M609 914 c-16 -20 -1 -48 29 -52 25 -4 39 32 22 53 -16 19 -34 19
-51 -1z m41 -19 c0 -8 -7 -15 -15 -15 -8 0 -15 7 -15 15 0 8 7 15 15 15 8 0
15 -7 15 -15z"/>
<path d="M1624 910 c-19 -9 -49 -33 -65 -53 -55 -67 -50 -199 8 -213 52 -13
237 -10 260 4 43 27 53 125 19 178 -9 13 -14 24 -11 24 9 0 -28 36 -56 54 -36
22 -112 25 -155 6z m111 -10 c33 0 90 -62 103 -110 13 -53 0 -51 -18 3 -14 40
-17 42 -52 40 -21 -2 -38 2 -38 8 0 5 6 9 13 8 26 -3 48 1 43 10 -3 5 -19 7
-36 5 -16 -2 -30 1 -30 7 0 6 4 8 8 5 4 -2 14 -1 22 5 10 6 -8 9 -55 10 -53 1
-63 3 -40 9 17 4 36 6 43 4 8 -2 24 -4 37 -4z m-45 -30 c0 -5 -19 -8 -41 -6
-44 4 -69 -14 -79 -56 -3 -12 -11 -23 -18 -26 -16 -5 -5 24 23 63 19 26 30 31
69 32 25 1 46 -2 46 -7z m-77 -40 c-3 -11 -9 -20 -14 -20 -5 0 -6 -7 -3 -15 4
-9 0 -15 -10 -15 -13 0 -14 5 -5 26 13 36 19 44 29 44 4 0 6 -9 3 -20z m37 10
c0 -5 -4 -10 -10 -10 -5 0 -10 5 -10 10 0 6 5 10 10 10 6 0 10 -4 10 -10z m40
0 c0 -5 -7 -10 -15 -10 -8 0 -15 5 -15 10 0 6 7 10 15 10 8 0 15 -4 15 -10z
m30 0 c0 -5 -4 -10 -10 -10 -5 0 -10 5 -10 10 0 6 5 10 10 10 6 0 10 -4 10
-10z m-42 -27 c-10 -2 -28 -2 -40 0 -13 2 -5 4 17 4 22 1 32 -1 23 -4z m49 1
c-3 -3 -12 -4 -19 -1 -8 3 -5 6 6 6 11 1 17 -2 13 -5z m68 -4 c-3 -5 -1 -10 4
-10 6 0 11 -4 11 -10 0 -5 -7 -10 -15 -10 -8 0 -15 6 -15 14 0 8 -10 17 -22
19 -16 3 -13 5 10 6 20 0 31 -3 27 -9z m-155 -20 c0 -5 -7 -10 -15 -10 -8 0
-15 5 -15 10 0 6 7 10 15 10 8 0 15 -4 15 -10z m50 1 c0 -6 -9 -9 -20 -8 -11
1 -20 5 -20 9 0 4 9 8 20 8 11 0 20 -4 20 -9z m40 -1 c0 -5 -7 -10 -15 -10 -8
0 -15 5 -15 10 0 6 7 10 15 10 8 0 15 -4 15 -10z m40 0 c0 -5 -7 -10 -15 -10
-8 0 -15 5 -15 10 0 6 7 10 15 10 8 0 15 -4 15 -10z m-98 -77 c-3 -44 -7 -53
-23 -53 -14 0 -19 8 -21 33 l-1 32 -4 -32 c-3 -25 -9 -33 -24 -33 -24 0 -26
30 -1 31 11 1 9 4 -8 9 -24 8 -24 8 -2 9 12 1 22 7 22 16 0 30 29 15 33 -17 3
-26 4 -24 5 13 1 25 5 49 9 53 13 13 19 -10 15 -61z m-112 47 c0 -5 -4 -10
-10 -10 -5 0 -10 5 -10 10 0 6 5 10 10 10 6 0 10 -4 10 -10z m40 0 c0 -5 -7
-10 -15 -10 -8 0 -15 5 -15 10 0 6 7 10 15 10 8 0 15 -4 15 -10z m40 0 c0 -5
-7 -10 -15 -10 -8 0 -15 5 -15 10 0 6 7 10 15 10 8 0 15 -4 15 -10z m140 -1
c0 -5 -9 -9 -20 -9 -17 0 -20 -7 -20 -45 0 -51 -19 -62 -22 -12 l-1 32 -4 -32
c-6 -47 -23 -41 -23 7 0 34 3 40 23 41 l22 2 -22 4 c-39 8 -25 21 22 21 25 0
45 -4 45 -9z m40 1 c0 -5 -7 -10 -15 -10 -8 0 -15 5 -15 10 0 6 7 10 15 10 8
0 15 -4 15 -10z m-260 -37 c0 -10 3 -29 6 -43 5 -22 4 -23 -6 -7 -16 25 -22
67 -10 67 5 0 10 -8 10 -17z m40 7 c0 -5 -7 -10 -15 -10 -8 0 -15 5 -15 10 0
6 7 10 15 10 8 0 15 -4 15 -10z m220 -1 c0 -7 -10 -9 -25 -5 -23 6 -25 4 -25
-29 0 -19 -4 -35 -10 -35 -5 0 -10 18 -10 40 0 39 1 40 35 40 19 0 35 -5 35
-11z m20 -20 c-11 -38 -15 -42 -40 -46 -15 -2 -20 3 -20 22 0 20 5 25 25 25
16 0 25 6 25 15 0 8 4 15 9 15 6 0 6 -12 1 -31z"/>
<path d="M1790 696 c0 -2 7 -6 15 -10 8 -3 15 -1 15 4 0 6 -7 10 -15 10 -8 0
-15 -2 -15 -4z"/>
<path d="M368 896 c-34 -25 -19 -76 21 -76 21 0 31 7 40 27 11 24 10 29 -9 45
-26 21 -30 21 -52 4z m43 -20 c5 3 9 0 9 -5 0 -6 -5 -11 -11 -11 -5 0 -7 -4
-4 -10 3 -6 -4 -10 -16 -10 -12 0 -19 3 -16 7 4 3 1 13 -6 21 -8 11 -8 14 0 9
6 -4 15 -2 19 5 6 9 9 9 12 0 2 -7 8 -10 13 -6z"/>
<path d="M163 871 c-12 -20 -1 -41 23 -41 18 0 26 30 13 46 -15 19 -22 18 -36
-5z m27 -11 c0 -5 -5 -10 -11 -10 -5 0 -7 5 -4 10 3 6 8 10 11 10 2 0 4 -4 4
-10z"/>
<path d="M1071 876 c-16 -19 -7 -46 14 -46 22 0 30 29 13 46 -13 13 -16 13
-27 0z m24 -16 c3 -5 -1 -10 -10 -10 -9 0 -13 5 -10 10 3 6 8 10 10 10 2 0 7
-4 10 -10z"/>
<path d="M2455 870 c-16 -18 -17 -23 -5 -45 14 -27 48 -33 68 -13 18 18 14 56
-7 68 -27 14 -35 13 -56 -10z m55 -26 c0 -20 -30 -30 -40 -13 -11 17 7 40 26
32 8 -3 14 -12 14 -19z"/>
<path d="M829 820 c-20 -15 -25 -26 -21 -45 5 -29 13 -35 51 -41 25 -4 30 -1
40 28 10 29 9 34 -13 55 -30 27 -25 27 -57 3z m49 -20 c12 0 13 -3 5 -11 -6
-6 -9 -17 -7 -23 2 -6 -6 -11 -20 -11 -13 0 -22 4 -19 8 3 4 -1 14 -7 22 -10
12 -9 15 4 15 9 0 16 6 17 13 0 10 2 10 6 0 2 -7 12 -13 21 -13z"/>
<path d="M2058 819 c-23 -13 -24 -85 -3 -116 14 -20 23 -21 184 -21 120 -1
172 3 179 11 12 15 13 108 1 123 -11 14 -289 16 -306 2 -7 -5 -14 -5 -18 2 -8
12 -15 12 -37 -1z m34 -51 c4 -57 26 -62 30 -6 4 50 22 58 26 11 6 -62 -35
-94 -72 -57 -16 15 -22 75 -9 87 15 15 22 5 25 -35z m145 16 c3 -8 1 -20 -5
-26 -8 -8 -6 -18 5 -34 14 -22 14 -24 0 -24 -9 0 -19 9 -22 20 -3 11 -11 20
-16 20 -5 0 -9 -9 -9 -20 0 -11 -4 -20 -10 -20 -5 0 -10 23 -10 50 0 49 1 50
30 50 19 0 33 -6 37 -16z m90 -29 c2 -42 -8 -55 -44 -55 -21 0 -23 5 -23 51
l0 50 32 -3 c30 -3 32 -6 35 -43z m83 35 c0 -5 -9 -10 -20 -10 -11 0 -20 -5
-20 -10 0 -6 6 -10 14 -8 8 2 14 -1 13 -7 -1 -5 -7 -9 -14 -7 -7 2 -13 -4 -13
-13 0 -8 9 -15 20 -15 11 0 20 -4 20 -10 0 -5 -13 -10 -30 -10 -29 0 -30 1
-30 50 0 49 1 50 30 50 17 0 30 -4 30 -10z"/>
<path d="M2190 770 c0 -5 4 -10 9 -10 6 0 13 5 16 10 3 6 -1 10 -9 10 -9 0
-16 -4 -16 -10z"/>
<path d="M2280 775 c0 -16 16 -20 24 -6 3 5 -1 11 -9 15 -9 3 -15 0 -15 -9z"/>
<path d="M2280 735 c0 -9 5 -15 11 -13 6 2 11 8 11 13 0 5 -5 11 -11 13 -6 2
-11 -4 -11 -13z"/>
<path d="M1205 774 c-60 -19 -118 -39 -128 -45 -10 -6 -33 -8 -50 -5 -23 4
-27 4 -12 -3 37 -16 -48 -32 -110 -20 -34 6 -61 6 -79 0 -14 -6 -26 -8 -26 -5
0 7 -61 -27 -86 -49 -19 -16 -22 -16 -34 -2 -7 9 -35 25 -62 37 -31 13 -47 26
-44 34 3 8 0 11 -10 7 -7 -3 -14 0 -14 6 0 6 -15 14 -32 19 -35 9 -90 0 -233
-37 -90 -23 -98 -25 -91 -12 7 11 -39 61 -57 61 -20 0 -37 -22 -38 -51 -1 -13
10 -65 25 -116 14 -51 26 -100 26 -110 0 -11 4 -23 9 -29 5 -5 16 -40 25 -79
30 -132 76 -300 88 -322 15 -30 63 -31 80 -3 13 20 13 20 28 0 15 -20 26 -20
288 -21 150 0 276 2 281 5 4 3 11 3 14 0 3 -4 59 -6 124 -5 133 2 151 9 133
55 -13 34 -6 46 25 46 13 0 27 5 30 10 18 29 95 -19 95 -59 0 -25 33 -53 54
-45 28 11 24 64 -10 116 -13 21 -24 44 -24 51 0 8 -9 22 -21 33 -19 17 -22 17
-48 3 -24 -14 -30 -14 -46 -3 -25 18 -64 18 -71 -1 -12 -31 -41 -16 -52 25
l-10 40 70 20 c39 12 83 33 101 50 l32 28 5 134 c7 177 0 272 -20 275 -8 1
-64 -14 -125 -33z m133 -153 c4 -203 -4 -231 -70 -261 -24 -10 -65 -24 -91
-31 -27 -6 -51 -17 -53 -23 -3 -7 2 -31 11 -55 8 -24 15 -47 15 -51 0 -16
-102 -28 -150 -18 -61 13 -130 94 -130 152 0 36 55 94 116 122 29 13 55 24 58
24 3 0 14 -30 25 -66 18 -55 52 -132 38 -84 -36 126 -51 170 -57 170 -4 0 -27
-7 -51 -15 -56 -20 -103 -57 -136 -106 -24 -36 -25 -43 -14 -79 25 -83 112
-149 197 -150 23 0 60 10 87 24 l47 23 2 -21 c4 -57 7 -73 17 -98 l11 -28
-124 0 -123 0 -7 39 c-7 45 -62 101 -100 101 -13 0 -26 7 -30 15 -7 20 -40 19
-57 -1 -26 -32 24 -70 53 -40 13 12 20 12 55 -4 39 -17 47 -27 63 -83 l9 -27
-276 2 -275 3 -15 40 c-26 70 -93 329 -93 360 0 58 21 106 68 155 48 49 95 70
160 70 20 0 31 4 27 10 -10 17 -84 11 -131 -10 -75 -35 -130 -106 -149 -194
-5 -23 -8 -27 -16 -15 -5 7 -9 26 -9 40 0 14 -3 29 -7 32 -3 4 -8 21 -10 37
-1 17 -12 40 -23 52 -11 12 -17 25 -13 29 15 15 295 80 316 73 12 -3 36 -21
54 -40 18 -19 38 -34 46 -34 7 0 32 -16 54 -35 l40 -34 28 29 c42 44 103 64
173 57 52 -6 75 0 237 52 99 33 185 60 190 60 7 1 11 -61 13 -168z m-1120
-132 c36 -134 67 -246 69 -249 2 -2 8 2 13 10 7 11 12 12 21 3 8 -8 6 -13 -11
-18 -24 -8 -23 -21 10 -127 l18 -58 -22 0 c-21 0 -28 21 -111 334 -48 184 -84
339 -80 346 4 6 12 9 18 7 5 -1 39 -113 75 -248z m1056 -284 c3 -8 15 -15 26
-15 11 0 20 7 20 15 0 8 8 15 18 15 25 0 34 -11 21 -26 -7 -9 -4 -16 10 -26
38 -27 69 -118 41 -118 -5 0 -10 9 -10 20 0 66 -90 131 -131 94 -24 -22 -59
-10 -59 20 0 12 3 26 7 29 12 13 51 7 57 -8z"/>
<path d="M980 663 c0 -3 20 -23 44 -44 24 -21 52 -58 62 -81 11 -29 19 -37 21
-26 9 38 -63 139 -107 151 -11 3 -20 3 -20 0z"/>
<path d="M610 579 c-36 -14 -99 -79 -116 -118 -64 -151 81 -345 230 -307 40
10 31 22 -16 22 -53 0 -95 9 -116 26 -40 29 -72 75 -72 101 0 15 -4 27 -9 27
-18 0 -23 41 -11 92 19 77 69 125 165 159 18 6 17 7 -5 7 -14 1 -36 -4 -50 -9z"/>
<path d="M715 556 c4 -39 19 -65 31 -54 3 4 -4 26 -15 50 l-21 43 5 -39z"/>
<path d="M945 574 c-16 -8 -38 -23 -49 -32 -26 -24 -56 -91 -55 -127 0 -28 1
-27 13 11 28 89 84 144 148 146 16 1 31 5 34 10 9 14 -60 9 -91 -8z"/>
<path d="M690 496 c0 -4 30 -101 65 -211 11 -34 35 -61 35 -38 -1 27 -78 247
-88 251 -7 2 -12 1 -12 -2z"/>
<path d="M624 470 c-36 -14 -107 -87 -98 -101 5 -9 10 -5 17 14 5 15 15 27 22
27 8 0 22 10 32 23 10 13 23 22 29 20 7 -2 14 3 17 12 4 8 5 15 4 14 -1 0 -12
-4 -23 -9z"/>
<path d="M403 114 c9 -9 456 -11 487 -3 14 4 -92 8 -234 8 -143 1 -256 -2
-253 -5z"/>
<path d="M972 115 c7 -7 188 -8 195 -1 4 3 -40 6 -97 6 -57 0 -101 -2 -98 -5z"/>
<path d="M710 745 c-11 -13 -11 -19 3 -33 20 -19 41 -5 35 24 -4 24 -22 28
-38 9z m30 -15 c0 -5 -4 -10 -10 -10 -5 0 -10 5 -10 10 0 6 5 10 10 10 6 0 10
-4 10 -10z"/>
<path d="M2981 651 c-8 -5 -11 -16 -6 -30 9 -30 20 -26 20 9 0 17 0 30 0 30 0
0 -6 -4 -14 -9z"/>
<path d="M1690 600 c-137 -28 -215 -187 -161 -329 44 -116 157 -166 299 -132
41 10 59 11 82 1 60 -25 185 -7 238 33 7 5 13 8 15 6 1 -2 7 -13 13 -24 14
-26 75 -32 98 -10 16 16 19 46 16 158 -1 31 1 57 4 57 4 0 47 -51 124 -149 49
-63 73 -81 109 -81 52 0 63 18 63 100 l0 70 53 -2 c43 -3 57 1 80 21 31 28 35
61 10 84 -21 18 -16 17 -88 17 -54 0 -55 0 -55 30 0 33 -5 31 104 35 44 2 63
7 73 21 18 24 16 48 -5 74 -16 20 -26 21 -146 21 -163 0 -162 1 -158 -120 2
-49 -1 -92 -6 -95 -5 -3 -22 8 -37 24 -16 17 -26 30 -22 30 3 0 -4 11 -16 24
-12 13 -44 49 -70 80 -41 48 -53 56 -82 56 -24 0 -39 -7 -51 -23 l-17 -22 -50
23 c-44 21 -61 24 -133 20 -59 -3 -89 -9 -102 -21 -10 -9 -22 -17 -27 -17 -4
0 -14 -8 -21 -17 -12 -17 -13 -16 -14 7 0 14 -4 30 -8 36 -8 13 -76 22 -112
14z m100 -43 c0 -32 -18 -47 -56 -47 -62 0 -114 -65 -114 -145 0 -86 51 -145
126 -145 71 0 75 5 53 53 -35 79 -16 190 42 247 38 35 100 60 155 60 66 0 146
-39 174 -86 12 -19 23 -34 24 -34 1 0 0 27 -2 60 l-4 60 29 0 c26 0 43 -17
144 -144 63 -80 116 -145 119 -145 3 -1 4 64 2 144 l-3 145 120 0 c66 0 126
-3 135 -6 10 -4 16 -18 16 -35 l0 -29 -95 0 -95 0 0 -60 0 -60 81 0 80 0 -3
-27 c-3 -28 -4 -28 -80 -31 l-78 -3 0 -87 0 -88 -35 4 c-32 4 -47 19 -150 149
l-115 144 0 -148 0 -149 -36 4 -36 4 4 52 4 52 -45 -47 c-32 -33 -60 -51 -91
-59 -52 -14 -133 -7 -165 14 -21 14 -27 14 -53 1 -105 -53 -232 -14 -283 88
-31 60 -24 168 14 226 34 51 110 91 175 91 37 0 42 -3 42 -23z m-25 -114 c-15
-60 -11 -150 8 -180 6 -10 -2 -13 -32 -13 -32 0 -44 6 -65 31 -52 62 -31 173
38 196 62 20 64 18 51 -34z"/>
<path d="M1941 503 c-48 -25 -73 -63 -78 -120 -10 -95 46 -163 132 -163 79 0
135 61 135 147 0 106 -104 180 -189 136z m132 -54 c22 -24 27 -38 27 -84 0
-75 -27 -106 -98 -113 -48 -4 -54 -2 -82 28 -25 27 -30 40 -30 82 0 55 21 101
54 117 36 17 98 3 129 -30z"/>
</g>
</svg>
